inDegrees=no
num_controls=7
num_derivatives=13
num_iterations=47
num_multipliers=7
num_parameters=0
num_slacks=7
num_states=26
objective=0.471898
objective_accelerations=0.062736
objective_balance=0.000928
objective_effort=0.017887
objective_height=0.381178
objective_ligament=0.009169
solver_duration=643.949017
status=Solve_Succeeded
success=true
DataType=double
version=3
OpenSimVersion=4.5
endheader
time	/jointset/ground_pelvis/pelvis_tilt/value	/jointset/ground_pelvis/pelvis_tx/value	/jointset/ground_pelvis/pelvis_ty/value	/jointset/hip_l/hip_flexion_l/value	/jointset/hip_l/hip_adduction_l/value	/jointset/hip_l/hip_rotation_l/value	/jointset/back/lumbar_extension/value	/jointset/patellofemoral_l/patellar_flexion_l/value	/jointset/knee_l/knee_flexion_l/value	/jointset/knee_l/knee_adduction_l/value	/jointset/knee_l/knee_rotation_l/value	/jointset/ankle_l/ankle_angle_l/value	/jointset/subtalar_l/subtalar_angle_l/value	/jointset/ground_pelvis/pelvis_tilt/speed	/jointset/ground_pelvis/pelvis_tx/speed	/jointset/ground_pelvis/pelvis_ty/speed	/jointset/hip_l/hip_flexion_l/speed	/jointset/hip_l/hip_adduction_l/speed	/jointset/hip_l/hip_rotation_l/speed	/jointset/back/lumbar_extension/speed	/jointset/patellofemoral_l/patellar_flexion_l/speed	/jointset/knee_l/knee_flexion_l/speed	/jointset/knee_l/knee_adduction_l/speed	/jointset/knee_l/knee_rotation_l/speed	/jointset/ankle_l/ankle_angle_l/speed	/jointset/subtalar_l/subtalar_angle_l/speed	/forceset/tau_hip_flexion_l	/forceset/tau_hip_adduction_l	/forceset/tau_hip_rotation_l	/forceset/tau_knee_flexion_l	/forceset/tau_ankle_angle_l	/forceset/tau_subtalar_angle_l	/forceset/tau_lumbar_extension	lambda_cid13_p0	lambda_cid13_p1	lambda_cid13_p2	lambda_cid13_p3	lambda_cid13_p4	lambda_cid13_p5	lambda_cid14_p0	/jointset/ground_pelvis/pelvis_tilt/accel	/jointset/ground_pelvis/pelvis_tx/accel	/jointset/ground_pelvis/pelvis_ty/accel	/jointset/hip_l/hip_flexion_l/accel	/jointset/hip_l/hip_adduction_l/accel	/jointset/hip_l/hip_rotation_l/accel	/jointset/back/lumbar_extension/accel	/jointset/patellofemoral_l/patellar_flexion_l/accel	/jointset/knee_l/knee_flexion_l/accel	/jointset/knee_l/knee_adduction_l/accel	/jointset/knee_l/knee_rotation_l/accel	/jointset/ankle_l/ankle_angle_l/accel	/jointset/subtalar_l/subtalar_angle_l/accel	gamma_cid13_p0	gamma_cid13_p1	gamma_cid13_p2	gamma_cid13_p3	gamma_cid13_p4	gamma_cid13_p5	gamma_cid14_p0
1	-0.6769749155012345	-0.07066096574904472	0.6203713445334028	1.862094996385446	-0.3379058218463928	0.09455652375367218	-0.4361891389166017	1.257262113647166	1.25726211364714	0.01342244770679553	-0.1743955992668043	0.2217558633071822	0.157048677744392	-0.1656197219711287	9.745540186024877e-05	0.02789282093140794	0.04132504119021457	-0.003562047379779607	-0.05991947448717848	-0.001506850595681872	-0.1627026091657507	-0.1627026091657579	-0.002429440212803137	-0.001020755545477097	-0.05070867035086562	-0.02368549333441122	-0.3263413884946345	0.05578145296593522	-0.007809630436987188	-0.1806490215960947	0.01705460808995489	-0.01815353259442195	0.2540979912374361	-27.15728714200345	16.29527987963043	-7.055133594966484	-0.3159615055522768	-540.9545632037742	-31.82608714769117	-0.02545606490244851	2.528287949929626	0.5216156094039086	1.819625499196138	-7.244117920513357	-0.2880377646268142	-1.487169276147713	-0.0377308280602266	-4.662533047075208	-4.662533047075205	-0.5064886610529733	-0.02153778378541873	-0.2917602524397865	-0.4491028181343025	-1.23570982062332e-08	-8.918629618056863e-08	1.164788292833135e-08	2.618444334144196e-09	-1.053789017656298e-08	-2.211866979152322e-08	-1.375645401695659e-08
1.01	-0.6785054333202921	-0.07063392906957185	0.6207410581212415	1.862147076832882	-0.337954922746836	0.093883948160676	-0.4362049391572242	1.255402196927967	1.255402196927952	0.01337328232804513	-0.1744051347339191	0.2212341984168107	0.156790516709229	-0.1404554988817689	0.00531782381335663	0.04604341493190474	-0.03092370834285461	-0.006245452467310272	-0.07457992864481046	-0.001653068570486654	-0.2092755152902451	-0.2092755152902453	-0.007404009220969217	-0.0008729003553914797	-0.05363164250894792	-0.02793260804339707	-0.3268973513018084	0.05593076855924047	-0.007835924603281195	-0.1796513510820894	0.01659576598431028	-0.01804720533225925	0.254417467880683	-27.27737855554327	16.23063591011193	-6.99971696284245	-0.3953011218180147	-540.8925948985409	-31.7733578692751	-0.02546712595318019	2.514739558237827	0.5234384136035725	1.811800983144924	-7.217468654192496	-0.2565850869190962	-1.453144118266107	-0.003047935425497895	-4.653883021795813	-4.653883021794456	-0.4930158997615375	0.03496445450335888	-0.2936724599749197	-0.4103839640478451	-1.343447079093104e-08	-1.068022266942714e-07	9.800701173049217e-09	-2.657387061051148e-09	-1.550921551701396e-08	-1.688640374576064e-08	-1.729313825290362e-08
1.02	-0.6797834588945314	-0.07055445051466684	0.6212920825756154	1.861476226748054	-0.3380304763393782	0.09306523589952667	-0.4362221977081824	1.253076708422191	1.253076708422214	0.01327435628336537	-0.1744127881923165	0.2206830824523656	0.1564903108936236	-0.1151212730004089	0.01058583048828961	0.06415499423920572	-0.1032610652554533	-0.008852585798941381	-0.08914680811027452	-0.001798512674621989	-0.2558169664811161	-0.2558169664811093	-0.0123815733916589	-0.0006443538014082345	-0.05659888516632813	-0.03209444942307788	-0.3274533141090725	0.05608008415244524	-0.00786221876973061	-0.1786536805681048	0.01613692387864615	-0.01794087807022665	0.2547369445238163	-27.40238407135414	16.1664356515768	-6.943894906403668	-0.4820215995387737	-540.9405434839697	-31.71554506797022	-0.02547340727881603	2.562288508329321	0.5311432620914498	1.811822560557032	-7.261839396419353	-0.2727834134469186	-1.468454337714099	-0.0375760539249636	-4.656242060350528	-4.656242060350524	-0.5070876935577276	-0.005399511005832251	-0.3006143522989653	-0.4320481522731577	-1.417439047748872e-08	-1.252149974338826e-07	3.000685126870832e-09	-8.550159870650768e-09	-1.973442989661674e-08	-1.375621998318362e-08	-2.024538204212977e-08
1.03	-0.6808073699423217	-0.07042201490029379	0.6220239405529091	1.860081776593117	-0.3381316721879206	0.09210114342486168	-0.4362407256969184	1.250286077722724	1.250286077722738	0.01312588792645861	-0.1744178222679492	0.2201020704730085	0.1561489751736749	-0.08963996135777463	0.0159131842676098	0.08220146715281555	-0.1756227584997544	-0.01136773148910991	-0.1036738377730614	-0.001889304126743032	-0.3022920837498537	-0.3022920837498411	-0.01728587112905432	-0.0003537482058503291	-0.05961030411882593	-0.03615024572638235	-0.3277083365135199	0.05624255826753461	-0.007877812195965846	-0.1775662791676381	0.01576776693008439	-0.01776493408134455	0.2548995718986532	-27.47378796381905	16.05994422026355	-6.878279309398105	-0.6340834366743822	-540.6937822398151	-31.7029681140049	-0.02590919183767332	2.544196151688257	0.5353122932296634	1.798784731033979	-7.222406275231462	-0.2380418966583686	-1.445173920380907	0.007836454653403701	-4.640578454563434	-4.640578454562285	-0.478193393128426	0.0475968344203704	-0.3024331421242069	-0.3889544897041836	-1.49108667671266e-08	-1.436358991962071e-07	-3.849870044724891e-09	-1.444922800080554e-08	-2.3952030899068e-08	-1.064748603982279e-08	-2.319166215332816e-08
1.04	-0.6815758391418238	-0.07023594957665122	0.6229358082741897	1.85796389510834	-0.3382574518433389	0.0909917113255726	-0.4362596281709765	1.247031209471685	1.24703120947172	0.01292915807627447	-0.1744196890397322	0.2194907388090498	0.155767759666625	-0.06403290333678452	0.02131177234219136	0.1001569430373011	-0.247947331215886	-0.01376934717352957	-0.11821473302867	-0.00187340975844921	-0.34866447679572	-0.3486644767957013	-0.02203387203836656	-1.089302695815577e-05	-0.06266282208728251	-0.04007040684350064	-0.3279633589181074	0.05640503238253491	-0.007893405622413993	-0.1764788777671845	0.01539860998151774	-0.01758899009257186	0.2550621992733219	-27.55015416512185	15.95375410959604	-6.812063302089935	-0.793894806467807	-540.5568725183412	-31.68647483044594	-0.02761731893594921	2.587437784000072	0.5453901211440043	1.793623154732248	-7.254415290785575	-0.2500774122972128	-1.471227456278472	-0.01623888984019004	-4.635697215776235	-4.635697215776235	-0.4758283279411462	0.005050405660987261	-0.308834155490219	-0.4049211150358134	-1.546528951514326e-08	-1.573470624706194e-07	-2.096925469224315e-09	-1.952687767607974e-08	-2.82526036735102e-08	-3.336537575912862e-09	-2.660677847434926e-08
1.05	-0.6820875082543305	-0.0699955355563411	0.62402670292231	1.855123021738322	-0.3384066509312478	0.08973727247444871	-0.4362777748105037	1.243313242081163	1.243313242081149	0.01268534671775774	-0.1744176981747526	0.2188486119660788	0.155348024187412	-0.03826995603287883	0.02678361231120977	0.1179996635549646	-0.3202148145706033	-0.01604677964032554	-0.1326296881739185	-0.001731732142738202	-0.3949006703986241	-0.3949006703986089	-0.02673624213954045	0.0004376875427692257	-0.06577489802504374	-0.04385100346940991	-0.3280743452545984	0.05673514861064259	-0.007901102502635031	-0.1751056967702003	0.01477457796676035	-0.01741212080550809	0.2551596484328663	-27.69392734756366	15.84777415770041	-6.733098802608896	-0.8797558683244813	-540.1577226091455	-31.61180388937777	-0.03116138369899149	2.575363908705077	0.549963057612355	1.776241491157234	-7.211039987772132	-0.2130097208230167	-1.420157523531983	0.03299899312216961	-4.613324754014266	-4.613324754014598	-0.4686507047797446	0.06905572386062002	-0.314256756390477	-0.3607487065798652	-1.601402308998426e-08	-1.709110464172844e-07	-7.512152662702799e-11	-2.457885802463894e-08	-3.255576931582712e-08	4.105730091764205e-09	-3.003654592692732e-08
1.06	-0.682340619752794	-0.06970002671177382	0.6252953537737783	1.851559848508735	-0.3385779110552172	0.08833997847588088	-0.4362937790925978	1.239133763890319	1.23913376389028	0.01239426978748674	-0.1744103627358685	0.2181749918750371	0.1548912587878983	-0.01232138052416804	0.03233073719362047	0.1357081837075942	-0.3924073031236198	-0.01818155438521052	-0.1467857625145477	-0.001444938293176072	-0.4409666368602048	-0.4409666368601932	-0.03148698638367885	0.001058021761760679	-0.06896147170165731	-0.04747639090378285	-0.3281853315912162	0.05706526483870962	-0.007908799382992101	-0.1737325157732193	0.01415054595201017	-0.0172352515184901	0.2552570975922605	-27.84275821708879	15.74194033383628	-6.653312770851086	-0.9739544282365104	-539.8693880959811	-31.5349772264276	-0.03714563852661124	2.624563424960635	0.5604471038227903	1.766783081725548	-7.239416330445545	-0.2215458679151537	-1.419451295354726	0.01278435693245008	-4.601651787511516	-4.601651787511538	-0.4855031565341286	0.03940113551363766	-0.3237337032601074	-0.3738792767284921	-1.604322616036359e-08	-1.877253859217452e-07	-1.013558848552297e-08	-3.017155609419988e-08	-3.585492862755592e-08	3.908724833434676e-09	-3.183557914943705e-08
